<?xml version="1.0" standalone="no"?>
<!DOCTYPE svg PUBLIC "-//W3C//DTD SVG 20010904//EN"
 "http://www.w3.org/TR/2001/REC-SVG-20010904/DTD/svg10.dtd">
<svg version="1.0" xmlns="http://www.w3.org/2000/svg"
 width="512.000000pt" height="512.000000pt" viewBox="0 0 512.000000 512.000000"
 preserveAspectRatio="xMidYMid meet">
<metadata>
Created by potrace 1.14, written by Peter Selinger 2001-2017
</metadata>
<g transform="translate(0.000000,512.000000) scale(0.100000,-0.100000)"
fill="#000000" stroke="none">
<path d="M2439 4796 c-2 -2 -22 -7 -44 -10 -90 -13 -113 -19 -183 -42 -205
-68 -401 -205 -535 -375 -85 -106 -168 -277 -202 -413 -9 -38 -19 -79 -22 -90
-3 -12 -6 -84 -8 -162 -4 -188 27 -341 101 -499 73 -157 224 -338 365 -438
139 -99 316 -169 489 -195 60 -9 273 -8 334 1 404 64 753 358 885 744 19 57
26 84 46 178 14 63 13 294 -1 372 -28 149 -87 300 -166 425 -53 81 -165 206
-234 258 -32 25 -61 47 -64 50 -8 9 -97 59 -159 90 -55 28 -187 73 -246 84
-16 4 -41 9 -55 12 -27 7 -296 15 -301 10z m312 -340 c183 -50 329 -145 439
-286 118 -152 172 -321 165 -520 -6 -166 -50 -299 -146 -435 -101 -145 -276
-264 -454 -310 -88 -23 -261 -28 -348 -9 -277 58 -509 258 -602 519 -45 128
-54 329 -21 460 49 189 167 357 328 467 100 67 181 98 343 132 43 8 243 -3
296 -18z"/>
<path d="M2248 2235 c-1 -1 -30 -6 -63 -10 -33 -3 -69 -8 -80 -11 -11 -2 -31
-6 -45 -8 -64 -10 -163 -37 -245 -66 -543 -193 -964 -646 -1114 -1200 -38
-141 -59 -295 -57 -422 1 -105 11 -128 70 -172 l27 -21 1819 0 1819 0 27 21
c60 44 69 67 69 172 -1 128 -10 217 -35 330 -130 604 -574 1103 -1155 1298
-229 77 -350 92 -732 92 -166 0 -303 -1 -305 -3z m652 -326 c349 -44 687 -227
909 -490 106 -126 172 -231 233 -372 40 -92 91 -270 102 -359 l7 -48 -1591 0
-1591 0 6 43 c67 456 340 846 745 1065 141 76 286 125 465 155 94 17 597 20
715 6z"/>
</g>
</svg>
